<svg width="25" height="25" viewBox="0 0 25 25" fill="none" xmlns="http://www.w3.org/2000/svg">
<path d="M22.8722 20.8056V11.2025C23.2082 11.468 23.6965 11.417 23.9701 11.0848C24.247 10.7485 24.1989 10.2513 23.8626 9.97437L13.0015 1.02992C12.7102 0.790026 12.2898 0.790026 11.9985 1.02992L1.1374 9.97437C0.801081 10.2513 0.752968 10.7485 1.02994 11.0848C1.30347 11.417 1.79176 11.468 2.12779 11.2025V20.8056C2.12779 22.6526 3.62515 24.15 5.47223 24.15H9.30556C9.74125 24.15 10.0944 23.7968 10.0944 23.3611V15.6944C10.0944 15.4244 10.3133 15.2056 10.5833 15.2056H14.4167C14.6867 15.2056 14.9056 15.4244 14.9056 15.6944V23.3611C14.9056 23.7968 15.2587 24.15 15.6944 24.15H19.5278C21.3748 24.15 22.8722 22.6526 22.8722 20.8056ZM16.4833 22.5722V15.6944C16.4833 14.5531 15.5581 13.6278 14.4167 13.6278H10.5833C9.44195 13.6278 8.51667 14.5531 8.51667 15.6944V22.5722H5.47223C4.49653 22.5722 3.70557 21.7813 3.70557 20.8056V9.94444C3.70557 9.93095 3.70523 9.91752 3.70456 9.90418L12.5 2.66086L21.2954 9.90417C21.2948 9.91752 21.2944 9.93095 21.2944 9.94444V20.8056C21.2944 21.7813 20.5035 22.5722 19.5278 22.5722H16.4833Z" fill="#4A4A4A" stroke="#4A4A4A" stroke-width="0.3"/>
</svg>
