<svg width="141" height="141" viewBox="0 0 141 141" fill="none" xmlns="http://www.w3.org/2000/svg">
<path fill-rule="evenodd" clip-rule="evenodd" d="M14.3821 27.5217L3.73778 16.8773C3.43171 16.5705 3.04143 16.3614 2.61641 16.2767C2.19138 16.1919 1.75076 16.2353 1.3504 16.4012C0.950044 16.5672 0.607976 16.8483 0.367565 17.2089C0.127155 17.5695 -0.00077191 17.9933 3.50428e-06 18.4267V50.3423C3.50428e-06 51.5503 0.980404 52.5307 2.1884 52.5307H34.1039C34.5373 52.5314 34.9612 52.4035 35.3218 52.1631C35.6824 51.9227 35.9635 51.5806 36.1295 51.1803C36.2954 50.7799 36.3388 50.3393 36.254 49.9143C36.1692 49.4892 35.9602 49.099 35.6533 48.7929L23.766 36.9055C31.5149 26.083 42.8129 18.3198 55.6943 14.9665C68.5756 11.6132 82.2249 12.8822 94.2673 18.5526C106.31 24.223 115.983 33.9359 121.604 46.0014C127.225 58.0669 128.438 71.7213 125.032 84.5888C121.626 97.4563 113.817 108.722 102.963 116.427C92.1088 124.132 78.897 127.787 65.6263 126.757C52.3556 125.728 39.8659 120.078 30.3303 110.791C20.7947 101.504 14.8168 89.1679 13.4367 75.929C13.258 74.1959 12.3981 72.6048 11.0462 71.5058C9.69434 70.4067 7.96124 69.8897 6.22817 70.0685C4.49511 70.2472 2.90403 71.1071 1.80497 72.459C0.705909 73.8109 0.188891 75.544 0.367654 77.277C2.05174 93.482 9.33265 108.593 20.957 120.008C32.5813 131.424 47.8217 138.429 64.0546 139.819C80.2874 141.209 96.497 136.897 109.893 127.624C123.289 118.351 133.033 104.698 137.447 89.0149C141.862 73.3321 140.671 56.601 134.079 41.7017C127.488 26.8024 115.908 14.6672 101.334 7.38523C86.7594 0.10326 70.1024 -1.86988 54.2301 1.80549C38.3579 5.48086 24.2635 14.5748 14.3734 27.5217H14.3821ZM67.8402 35.0235C69.5814 35.0235 71.2513 35.7152 72.4825 36.9464C73.7137 38.1776 74.4054 39.8475 74.4054 41.5887V67.7794L92.1577 74.8873C93.7221 75.5693 94.9594 76.8336 95.6075 78.4123C96.2556 79.991 96.2635 81.7601 95.6295 83.3445C94.9955 84.929 93.7694 86.2042 92.2112 86.9001C90.6529 87.596 88.8849 87.6577 87.2819 87.0723L65.398 78.3187C64.181 77.831 63.1379 76.99 62.403 75.9042C61.6682 74.8183 61.2754 73.5373 61.2751 72.2262V41.5887C61.2751 39.8475 61.9667 38.1776 63.1979 36.9464C64.4292 35.7152 66.099 35.0235 67.8402 35.0235V35.0235Z" fill="#4A4A4A"/>
</svg>
